<?xml version="1.0" encoding="UTF-8" standalone="no"?>
<!DOCTYPE svg PUBLIC "-//W3C//DTD SVG 1.1//EN" "http://www.w3.org/Graphics/SVG/1.1/DTD/svg11.dtd">

<svg xmlns="http://www.w3.org/2000/svg" x="0px" xmlns:xlink="http://www.w3.org/1999/xlink" y="0px" viewBox="47.625000 46.876656 576.921875 329.887329" width="1685.199463px" version="1.1" height="1191.970337px">
    <g ID="eSK0_3F6EC4D8-A3AD-4CF7-B064-F67128F9B1D9" dclass="DiaElement" element_type="eSK0">
        <path ID="contour_766C94CF-12A5-4E5E-8211-1FF358FB12B7" d=" M 424.263794 104.508186 C 424.263794 102.593422 424.081940 101.026314 423.776489 99.217873 C 421.733276 87.204086 416.640442 76.797829 401.111816 67.973564 C 392.954163 63.365799 384.464478 58.674065 374.847931 56.422245 C 363.389465 53.737755 350.371918 53.232758 336.706726 53.941898 C 331.852997 54.193874 327.503967 54.642509 323.178406 55.569603 C 316.863770 56.924076 310.424500 57.779915 304.521576 59.394897 C 293.475769 62.416389 282.598572 64.630981 273.191498 69.945732 C 255.313110 80.153183 244.804703 90.407433 244.804703 104.760155 C 244.804703 119.005508 255.393799 126.713448 273.272186 136.920929 C 286.449066 144.363098 299.794495 146.728638 317.162079 148.641251 C 323.188629 149.386520 329.752533 149.943634 336.393127 149.943634 C 361.731354 149.943634 378.146759 147.393112 396.025177 137.293045 C 413.903534 127.086647 424.263794 118.754616 424.263794 104.508186 Z M 424.263794 104.508186" dclass="DKDrawableShape" fill-opacity="0.000000" fill="#000000"></path>
        <path ID="eSK0_59976D1C-CFD3-4A69-B6DC-323C9C5F992E" d=" M 364.232269 59.043007 C 371.996613 59.787216 382.621460 63.189339 396.106873 69.143059 C 409.592316 75.203125 417.050171 85.303177 418.582550 99.336975 C 420.012848 113.370758 414.189575 123.577126 401.214966 129.849838 C 388.138245 136.122513 377.513367 140.162552 369.442535 142.076233 C 361.269562 143.777298 350.031738 144.840485 335.933350 145.159409 C 321.732819 145.372070 308.656036 143.670990 296.600922 139.949890 C 284.647919 136.122513 276.270630 133.145645 271.468994 131.019318 C 266.769531 128.893005 264.113312 127.829819 263.806824 127.829819 C 262.376587 127.829819 261.661407 128.467743 261.661407 129.743500 C 261.661407 129.956161 261.661407 130.275101 261.865784 130.487732 C 261.865784 130.594055 261.967926 130.700394 261.967926 130.806686 C 262.989563 132.295105 266.054413 134.102493 271.264679 136.122513 C 274.636017 137.504608 278.518219 138.886734 282.911194 140.375153 C 296.805237 146.754166 317.339874 149.943649 344.514954 149.943649 C 346.966858 149.943649 351.768494 149.305740 359.124146 147.923630 C 368.931732 146.117325 378.024139 143.883621 386.300323 141.013077 C 411.636566 132.401413 424.304688 120.812920 424.304688 106.460197 C 424.304688 89.874794 416.539307 76.585220 401.010681 66.697800 C 386.401489 57.554565 367.910156 52.876656 345.536652 52.876656 C 342.369598 52.876656 336.342010 53.620865 327.351776 54.896648 C 314.887970 56.810356 303.445801 59.361954 293.025269 62.551445 C 260.844177 72.226265 244.804688 85.834778 244.804688 103.270706 C 244.804688 103.377022 245.315521 106.991776 246.337128 114.221306 C 247.767395 120.387657 250.014984 124.002411 252.977692 124.852936 C 253.386322 124.852936 253.897125 124.959251 254.305756 124.959251 C 255.633865 124.959251 256.246857 124.321358 256.246857 122.939255 C 255.020889 120.812920 253.692780 118.473953 252.466843 115.816040 C 249.912781 110.712845 248.584686 106.566513 248.584686 103.164391 C 248.584686 100.506477 250.014938 96.572777 252.875504 91.575890 C 255.736023 86.472694 264.521973 80.306320 279.437683 72.970497 C 294.251190 65.740967 310.086334 61.381996 327.045258 59.999870 C 344.004120 58.511406 356.365753 58.193516 364.232269 59.043007 Z M 364.232269 59.043007" dclass="DKDrawableShape" fill-opacity="1.000000" fill="#000000"></path>
        <path ID="eSK0_885D3996-FB35-4C9C-8C02-4AEBED9CA20A" d=" M 261.865753 130.488754 C 261.865753 130.595093 261.967926 130.701401 261.967926 130.807693" dclass="DKDrawableShape" stroke-linecap="round" stroke="#FFFFFF" stroke-linejoin="round" stroke-opacity="1.000000" fill-opacity="0.000000" fill="#000000" stroke-width="1.000000"></path>
        <path ID="eSK0_1D8452B3-0ACB-4114-ABB0-A9E292DD5137" d=" M 261.967987 130.806686 C 262.989594 132.295105 266.054474 134.102493 271.264740 136.122513 C 274.636078 137.504608 278.518250 138.886734 282.911224 140.375153 C 296.805298 146.754166 317.339874 149.943649 344.515015 149.943649 C 346.966888 149.943649 351.768494 149.305740 359.124207 147.923630 C 368.931763 146.117325 378.024200 143.883621 386.300385 141.013077 C 411.636566 132.401413 424.304688 120.812920 424.304688 106.460197 C 424.304688 89.874794 416.539368 76.585220 401.010742 66.697800 C 386.401550 57.554565 367.910156 52.876656 345.536652 52.876656 C 342.369629 52.876656 336.342041 53.620865 327.351807 54.896648 C 314.888000 56.810356 303.445862 59.361954 293.025299 62.551445 C 260.844208 72.226265 244.804749 85.834778 244.804749 103.270706 C 244.804749 103.377022 245.315536 106.991776 246.337158 114.221306 C 247.767426 120.387657 252.977707 125.916115 261.865845 130.487732" dclass="DKDrawableShape" stroke-linecap="round" stroke="#FFFFFF" stroke-linejoin="round" stroke-opacity="1.000000" fill-opacity="0.000000" fill="#000000" stroke-width="1.000000"></path>
        <Hotspots>
            <StickySpot id_sticky_spot="121B972F-E165-445D-AFE8-BDEE34ED3B20_32770" relative_location="{0.000000,0.500000}" position_kind="0"></StickySpot>
            <StickySpot id_sticky_spot="121B972F-E165-445D-AFE8-BDEE34ED3B20_32768" relative_location="{-0.500000,0.000000}" position_kind="0"></StickySpot>
            <StickySpot id_sticky_spot="121B972F-E165-445D-AFE8-BDEE34ED3B20_32769" relative_location="{0.500000,0.000000}" position_kind="0"></StickySpot>
            <StickySpot id_sticky_spot="121B972F-E165-445D-AFE8-BDEE34ED3B20_32771" relative_location="{0.000000,-0.500000}" position_kind="0"></StickySpot>
        </Hotspots>
        <g>
            <text style="font-family:Helvetica; font-size:14.000000; fill: #000000;" text-anchor="middle" transform="matrix(1.000000,0.000000,-0.000000,1.000000,334.534241,97.547760)">Combined Billing </text>
            <text style="font-family:Helvetica; font-size:14.000000; fill: #000000;" text-anchor="middle" transform="matrix(1.000000,0.000000,-0.000000,1.000000,334.534241,114.547760)">Account</text>
        </g>
    </g>
    <g ID="eSK0_3330DD2C-4FB3-4AD7-B1B5-548C9315433A" dclass="DiaElement" element_type="eSK0">
        <path ID="contour_DFCEE1A0-876D-4046-A52F-D1D9F757C46F" d=" M 233.084076 210.898804 C 233.084076 208.984039 232.902237 207.416946 232.596802 205.608490 C 230.553558 193.594711 225.460754 183.188446 209.932114 174.364197 C 201.774475 169.756424 193.284775 165.064697 183.668243 162.812866 C 172.209763 160.128387 159.192215 159.623383 145.527023 160.332520 C 140.673309 160.584503 136.324265 161.033142 131.998703 161.960236 C 125.684059 163.314697 119.244781 164.170532 113.341858 165.785522 C 102.296066 168.807007 91.418869 171.021606 82.011795 176.336349 C 64.133415 186.543808 53.625000 196.798050 53.625000 211.150787 C 53.625000 225.396133 64.214096 233.104065 82.092484 243.311554 C 95.269371 250.753723 108.614807 253.119263 125.982368 255.031876 C 132.008911 255.777145 138.572845 256.334259 145.213409 256.334259 C 170.551666 256.334259 186.967072 253.783737 204.845474 243.683670 C 222.723846 233.477280 233.084076 225.145248 233.084076 210.898804 Z M 233.084076 210.898804" dclass="DKDrawableShape" fill-opacity="0.000000" fill="#000000"></path>
        <path ID="eSK0_864FAE07-8ED3-4DC7-AB64-EAB41039220B" d=" M 173.052582 165.433624 C 180.816956 166.177841 191.441788 169.579956 204.927200 175.533691 C 218.412659 181.593750 225.870483 191.693802 227.402878 205.727600 C 228.833191 219.761383 223.009918 229.967743 210.035309 236.240463 C 196.958557 242.513138 186.333679 246.553177 178.262878 248.466858 C 170.089890 250.167923 158.852066 251.231110 144.753677 251.550034 C 130.553146 251.762695 117.476364 250.061615 105.421234 246.340515 C 93.468246 242.513138 85.090973 239.536270 80.289322 237.409943 C 75.589859 235.283630 72.933647 234.220444 72.627159 234.220444 C 71.196899 234.220444 70.481743 234.858368 70.481743 236.134125 C 70.481743 236.346786 70.481743 236.665726 70.686104 236.878357 C 70.686104 236.984680 70.788254 237.091019 70.788254 237.197311 C 71.809875 238.685730 74.874748 240.493118 80.085014 242.513138 C 83.456360 243.895233 87.338531 245.277359 91.731522 246.765778 C 105.625565 253.144791 126.160187 256.334290 153.335297 256.334290 C 155.787186 256.334290 160.588821 255.696365 167.944473 254.314255 C 177.752075 252.507950 186.844482 250.274246 195.120651 247.403702 C 220.456879 238.792038 233.125000 227.203552 233.125000 212.850815 C 233.125000 196.265411 225.359650 182.975845 209.830994 173.088425 C 195.221817 163.945190 176.730469 159.267273 154.356979 159.267273 C 151.189926 159.267273 145.162354 160.011490 136.172104 161.287277 C 123.708290 163.200989 112.266136 165.752579 101.845581 168.942078 C 69.664505 178.616882 53.625023 192.225403 53.625023 209.661331 C 53.625023 209.767639 54.135841 213.382401 55.157455 220.611923 C 56.587715 226.778290 58.835304 230.393036 61.798012 231.243561 C 62.206650 231.243561 62.717445 231.349884 63.126091 231.349884 C 64.454193 231.349884 65.067177 230.711990 65.067177 229.329880 C 63.841217 227.203552 62.513115 224.864578 61.287170 222.206665 C 58.733109 217.103470 57.405006 212.957138 57.405006 209.555008 C 57.405006 206.897095 58.835266 202.963394 61.695831 197.966522 C 64.556351 192.863327 73.342316 186.696945 88.257996 179.361115 C 103.071518 172.131592 118.906670 167.772614 135.865585 166.390503 C 152.824448 164.902039 165.186081 164.584137 173.052582 165.433624 Z M 173.052582 165.433624" dclass="DKDrawableShape" fill-opacity="1.000000" fill="#000000"></path>
        <path ID="eSK0_95984277-FB08-4A8B-9612-42EB94645335" d=" M 70.686058 236.879379 C 70.686058 236.985718 70.788231 237.092026 70.788231 237.198318" dclass="DKDrawableShape" stroke-linecap="round" stroke="#FFFFFF" stroke-linejoin="round" stroke-opacity="1.000000" fill-opacity="0.000000" fill="#000000" stroke-width="1.000000"></path>
        <path ID="eSK0_FFDCD70F-CA4A-48BC-A7C3-85ADFAF98F8B" d=" M 70.788277 237.197311 C 71.809883 238.685730 74.874763 240.493118 80.085030 242.513138 C 83.456375 243.895233 87.338547 245.277359 91.731506 246.765778 C 105.625580 253.144791 126.160179 256.334290 153.335327 256.334290 C 155.787186 256.334290 160.588806 255.696365 167.944504 254.314255 C 177.752060 252.507950 186.844513 250.274246 195.120667 247.403702 C 220.456879 238.792038 233.125000 227.203552 233.125000 212.850815 C 233.125000 196.265411 225.359665 182.975845 209.831024 173.088425 C 195.221848 163.945190 176.730469 159.267273 154.356964 159.267273 C 151.189911 159.267273 145.162338 160.011490 136.172089 161.287277 C 123.708298 163.200989 112.266151 165.752579 101.845596 168.942078 C 69.664497 178.616882 53.625038 192.225403 53.625038 209.661331 C 53.625038 209.767639 54.135834 213.382401 55.157455 220.611923 C 56.587730 226.778290 61.798004 232.306732 70.686134 236.878357" dclass="DKDrawableShape" stroke-linecap="round" stroke="#FFFFFF" stroke-linejoin="round" stroke-opacity="1.000000" fill-opacity="0.000000" fill="#000000" stroke-width="1.000000"></path>
        <Hotspots>
            <StickySpot id_sticky_spot="049E860D-6D83-46D6-A844-254E0639BDDE_32768" relative_location="{-0.500000,0.000000}" position_kind="0"></StickySpot>
            <StickySpot id_sticky_spot="049E860D-6D83-46D6-A844-254E0639BDDE_32769" relative_location="{0.500000,0.000000}" position_kind="0"></StickySpot>
            <StickySpot id_sticky_spot="049E860D-6D83-46D6-A844-254E0639BDDE_32770" relative_location="{0.000000,0.500000}" position_kind="0"></StickySpot>
            <StickySpot id_sticky_spot="049E860D-6D83-46D6-A844-254E0639BDDE_32771" relative_location="{0.000000,-0.500000}" position_kind="0"></StickySpot>
        </Hotspots>
        <g>
            <text style="font-family:Helvetica; font-size:14.000000; fill: #000000;" text-anchor="middle" transform="matrix(1.000000,0.000000,-0.000000,1.000000,143.354538,212.438385)">Dev Account</text>
        </g>
    </g>
    <g ID="eSK0_96AA3EAD-6EED-4E18-995C-AF24ACBC00FF" dclass="DiaElement" element_type="eSK0">
        <path ID="contour_DAA894B3-8F25-446F-AD6F-BCD1BD956F7D" d=" M 326.712982 325.328491 C 326.712982 323.413727 326.531128 321.846619 326.225708 320.038177 C 324.182465 308.024414 319.089661 297.618134 303.561035 288.793884 C 295.403381 284.186096 286.913696 279.494385 277.297150 277.242554 C 265.838654 274.558075 252.821121 274.053070 239.155930 274.762207 C 234.302216 275.014191 229.953171 275.462830 225.627609 276.389923 C 219.312958 277.744385 212.873688 278.600220 206.970764 280.215210 C 195.924973 283.236694 185.047775 285.451294 175.640701 290.766052 C 157.762329 300.973480 147.253906 311.227753 147.253906 325.580475 C 147.253906 339.825806 157.843002 347.533752 175.721390 357.741241 C 188.898285 365.183411 202.243713 367.548950 219.611282 369.461548 C 225.637817 370.206848 232.201752 370.763947 238.842316 370.763947 C 264.180573 370.763947 280.595978 368.213440 298.474365 358.113342 C 316.352753 347.906952 326.712982 339.574921 326.712982 325.328491 Z M 326.712982 325.328491" dclass="DKDrawableShape" fill-opacity="0.000000" fill="#000000"></path>
        <path ID="eSK0_F00C628F-D45C-4AA3-8B39-8A064E68BC69" d=" M 266.681488 279.863312 C 274.445862 280.607544 285.070709 284.009644 298.556091 289.963379 C 312.041565 296.023438 319.499390 306.123474 321.031799 320.157288 C 322.462097 334.191071 316.638824 344.397430 303.664215 350.670166 C 290.587463 356.942810 279.962585 360.982849 271.891785 362.896545 C 263.718781 364.597626 252.480972 365.660797 238.382584 365.979706 C 224.182053 366.192383 211.105270 364.491302 199.050140 360.770203 C 187.097153 356.942810 178.719879 353.965973 173.918228 351.839630 C 169.218765 349.713318 166.562561 348.650146 166.256073 348.650146 C 164.825806 348.650146 164.110657 349.288055 164.110657 350.563812 C 164.110657 350.776459 164.110657 351.095428 164.315002 351.308044 C 164.315002 351.414368 164.417160 351.520691 164.417160 351.626984 C 165.438782 353.115417 168.503662 354.922791 173.713928 356.942810 C 177.085266 358.324921 180.967438 359.707062 185.360428 361.195465 C 199.254471 367.574463 219.789093 370.763977 246.964203 370.763977 C 249.416092 370.763977 254.217728 370.126038 261.573364 368.743958 C 271.380981 366.937653 280.473389 364.703918 288.749542 361.833374 C 314.085785 353.221741 326.753906 341.633240 326.753906 327.280518 C 326.753906 310.695099 318.988556 297.405548 303.459900 287.518127 C 288.850708 278.374878 270.359375 273.696960 247.985886 273.696960 C 244.818832 273.696960 238.791260 274.441162 229.801010 275.716949 C 217.337189 277.630676 205.895050 280.182251 195.474487 283.371765 C 163.293411 293.046570 147.253937 306.655090 147.253937 324.091003 C 147.253937 324.197327 147.764740 327.812073 148.786362 335.041626 C 150.216614 341.207977 152.464203 344.822723 155.426910 345.673248 C 155.835556 345.673248 156.346344 345.779572 156.755005 345.779572 C 158.083099 345.779572 158.696075 345.141663 158.696075 343.759583 C 157.470123 341.633240 156.142029 339.294250 154.916077 336.636353 C 152.362015 331.533142 151.033905 327.386810 151.033905 323.984711 C 151.033905 321.326782 152.464172 317.393097 155.324738 312.396210 C 158.185257 307.292999 166.971222 301.126617 181.886902 293.790802 C 196.700424 286.561279 212.535568 282.202301 229.494492 280.820190 C 246.453354 279.331726 258.815002 279.013824 266.681488 279.863312 Z M 266.681488 279.863312" dclass="DKDrawableShape" fill-opacity="1.000000" fill="#000000"></path>
        <path ID="eSK0_9E227CF6-9BE4-4910-89C6-EB73192C58C1" d=" M 164.314972 351.309052 C 164.314972 351.415405 164.417145 351.521729 164.417145 351.628021" dclass="DKDrawableShape" stroke-linecap="round" stroke="#FFFFFF" stroke-linejoin="round" stroke-opacity="1.000000" fill-opacity="0.000000" fill="#000000" stroke-width="1.000000"></path>
        <path ID="eSK0_B684E967-8F25-4EAF-AE37-7675EEDFB16F" d=" M 164.417175 351.626984 C 165.438782 353.115417 168.503662 354.922791 173.713928 356.942810 C 177.085281 358.324921 180.967453 359.707062 185.360413 361.195465 C 199.254486 367.574463 219.789078 370.763977 246.964233 370.763977 C 249.416092 370.763977 254.217712 370.126038 261.573395 368.743958 C 271.380981 366.937653 280.473419 364.703918 288.749573 361.833374 C 314.085785 353.221741 326.753906 341.633240 326.753906 327.280518 C 326.753906 310.695099 318.988586 297.405548 303.459930 287.518127 C 288.850739 278.374878 270.359375 273.696960 247.985870 273.696960 C 244.818817 273.696960 238.791245 274.441162 229.800995 275.716949 C 217.337204 277.630676 205.895050 280.182251 195.474503 283.371765 C 163.293396 293.046570 147.253937 306.655090 147.253937 324.091003 C 147.253937 324.197327 147.764740 327.812073 148.786362 335.041626 C 150.216644 341.207977 155.426910 346.736420 164.315033 351.308044" dclass="DKDrawableShape" stroke-linecap="round" stroke="#FFFFFF" stroke-linejoin="round" stroke-opacity="1.000000" fill-opacity="0.000000" fill="#000000" stroke-width="1.000000"></path>
        <Hotspots>
            <StickySpot id_sticky_spot="D9F26AD6-D51B-49FC-AE8B-A977F3D5FEA0_32768" relative_location="{-0.500000,0.000000}" position_kind="0"></StickySpot>
            <StickySpot id_sticky_spot="D9F26AD6-D51B-49FC-AE8B-A977F3D5FEA0_32769" relative_location="{0.500000,0.000000}" position_kind="0"></StickySpot>
            <StickySpot id_sticky_spot="D9F26AD6-D51B-49FC-AE8B-A977F3D5FEA0_32770" relative_location="{0.000000,0.500000}" position_kind="0"></StickySpot>
            <StickySpot id_sticky_spot="D9F26AD6-D51B-49FC-AE8B-A977F3D5FEA0_32771" relative_location="{0.000000,-0.500000}" position_kind="0"></StickySpot>
        </Hotspots>
        <g>
            <text style="font-family:Helvetica; font-size:14.000000; fill: #000000;" text-anchor="middle" transform="matrix(1.000000,0.000000,-0.000000,1.000000,236.983429,326.868073)">Staging Account</text>
        </g>
    </g>
    <g ID="eSK0_0295E741-4EAB-41D8-80D2-F716631615F8" dclass="DiaElement" element_type="eSK0">
        <path ID="contour_1F3CB30D-1B90-4732-9E6B-85EF8A8B8B13" d=" M 525.259888 321.969116 C 525.259888 320.054352 525.078003 318.487244 524.772583 316.678802 C 522.729370 304.665039 517.636536 294.258759 502.107910 285.434509 C 493.950256 280.826721 485.460571 276.135010 475.844025 273.883179 C 464.385559 271.198700 451.368011 270.693695 437.702820 271.402832 C 432.849091 271.654816 428.500061 272.103455 424.174500 273.030548 C 417.859863 274.385010 411.420593 275.240845 405.517670 276.855835 C 394.471863 279.877319 383.594666 282.091919 374.187592 287.406677 C 356.309204 297.614105 345.800781 307.868378 345.800781 322.221100 C 345.800781 336.466431 356.389893 344.174377 374.268280 354.381866 C 387.445160 361.824036 400.790588 364.189575 418.158173 366.102173 C 424.184723 366.847473 430.748627 367.404572 437.389221 367.404572 C 462.727448 367.404572 479.142853 364.854065 497.021271 354.753967 C 514.899658 344.547577 525.259888 336.215546 525.259888 321.969116 Z M 525.259888 321.969116" dclass="DKDrawableShape" fill-opacity="0.000000" fill="#000000"></path>
        <path ID="eSK0_59EF8676-0958-4D7F-949A-7A1CB096E7FC" d=" M 465.228363 276.503937 C 472.992706 277.248169 483.617554 280.650269 497.102966 286.604004 C 510.588409 292.664062 518.046265 302.764099 519.578613 316.797913 C 521.008972 330.831696 515.185669 341.038055 502.211060 347.310791 C 489.134338 353.583435 478.509460 357.623474 470.438629 359.537170 C 462.265656 361.238251 451.027832 362.301422 436.929443 362.620331 C 422.728912 362.833008 409.652130 361.131927 397.597015 357.410828 C 385.644012 353.583435 377.266724 350.606598 372.465088 348.480255 C 367.765625 346.353943 365.109406 345.290771 364.802917 345.290771 C 363.372681 345.290771 362.657501 345.928680 362.657501 347.204437 C 362.657501 347.417084 362.657501 347.736053 362.861877 347.948669 C 362.861877 348.054993 362.964020 348.161316 362.964020 348.267609 C 363.985657 349.756042 367.050507 351.563416 372.260773 353.583435 C 375.632111 354.965546 379.514313 356.347687 383.907288 357.836090 C 397.801331 364.215088 418.335968 367.404602 445.511047 367.404602 C 447.962952 367.404602 452.764587 366.766663 460.120239 365.384583 C 469.927826 363.578278 479.020233 361.344543 487.296417 358.473999 C 512.632629 349.862366 525.300781 338.273865 525.300781 323.921143 C 525.300781 307.335724 517.535400 294.046173 502.006775 284.158752 C 487.397583 275.015503 468.906250 270.337585 446.532745 270.337585 C 443.365692 270.337585 437.338104 271.081787 428.347870 272.357574 C 415.884064 274.271301 404.441895 276.822876 394.021362 280.012390 C 361.840271 289.687195 345.800781 303.295715 345.800781 320.731628 C 345.800781 320.837952 346.311615 324.452698 347.333221 331.682251 C 348.763489 337.848602 351.011078 341.463348 353.973785 342.313873 C 354.382416 342.313873 354.893219 342.420197 355.301849 342.420197 C 356.629944 342.420197 357.242950 341.782288 357.242950 340.400208 C 356.016968 338.273865 354.688873 335.934875 353.462952 333.276978 C 350.908875 328.173767 349.580780 324.027435 349.580780 320.625336 C 349.580780 317.967407 351.011047 314.033722 353.871582 309.036835 C 356.732117 303.933624 365.518066 297.767242 380.433777 290.431427 C 395.247284 283.201904 411.082428 278.842926 428.041351 277.460815 C 445.000214 275.972351 457.361847 275.654449 465.228363 276.503937 Z M 465.228363 276.503937" dclass="DKDrawableShape" fill-opacity="1.000000" fill="#000000"></path>
        <path ID="eSK0_DE7209A3-E413-439A-9F03-1E75098C7235" d=" M 362.861847 347.949677 C 362.861847 348.056030 362.964020 348.162354 362.964020 348.268646" dclass="DKDrawableShape" stroke-linecap="round" stroke="#FFFFFF" stroke-linejoin="round" stroke-opacity="1.000000" fill-opacity="0.000000" fill="#000000" stroke-width="1.000000"></path>
        <path ID="eSK0_FF1BE40E-5B47-4E41-A71C-8DECC9677343" d=" M 362.964081 348.267609 C 363.985687 349.756042 367.050568 351.563416 372.260834 353.583435 C 375.632172 354.965546 379.514343 356.347687 383.907318 357.836090 C 397.801392 364.215088 418.335968 367.404602 445.511108 367.404602 C 447.962982 367.404602 452.764587 366.766663 460.120300 365.384583 C 469.927856 363.578278 479.020294 361.344543 487.296478 358.473999 C 512.632690 349.862366 525.300781 338.273865 525.300781 323.921143 C 525.300781 307.335724 517.535461 294.046173 502.006836 284.158752 C 487.397644 275.015503 468.906250 270.337585 446.532745 270.337585 C 443.365723 270.337585 437.338135 271.081787 428.347900 272.357574 C 415.884094 274.271301 404.441956 276.822876 394.021393 280.012390 C 361.840302 289.687195 345.800842 303.295715 345.800842 320.731628 C 345.800842 320.837952 346.311646 324.452698 347.333252 331.682251 C 348.763519 337.848602 353.973816 343.377045 362.861938 347.948669" dclass="DKDrawableShape" stroke-linecap="round" stroke="#FFFFFF" stroke-linejoin="round" stroke-opacity="1.000000" fill-opacity="0.000000" fill="#000000" stroke-width="1.000000"></path>
        <Hotspots>
            <StickySpot id_sticky_spot="F11F5B5E-1BED-456B-8E84-AF9F5981A7FF_32768" relative_location="{-0.500000,0.000000}" position_kind="0"></StickySpot>
            <StickySpot id_sticky_spot="F11F5B5E-1BED-456B-8E84-AF9F5981A7FF_32769" relative_location="{0.500000,0.000000}" position_kind="0"></StickySpot>
            <StickySpot id_sticky_spot="F11F5B5E-1BED-456B-8E84-AF9F5981A7FF_32770" relative_location="{0.000000,0.500000}" position_kind="0"></StickySpot>
            <StickySpot id_sticky_spot="F11F5B5E-1BED-456B-8E84-AF9F5981A7FF_32771" relative_location="{0.000000,-0.500000}" position_kind="0"></StickySpot>
        </Hotspots>
        <g>
            <text style="font-family:Helvetica; font-size:14.000000; fill: #000000;" text-anchor="middle" transform="matrix(1.000000,0.000000,-0.000000,1.000000,435.530334,323.508698)">Production Account</text>
        </g>
    </g>
    <g ID="eSK0_FF5327B4-897C-419E-AD83-25F2A6E53754" dclass="DiaElement" element_type="eSK0">
        <path ID="contour_37BFE5BC-992C-4513-AD3F-4F4676E635F8" d=" M 618.505981 202.973022 C 618.505981 201.058258 618.324097 199.491165 618.018677 197.682709 C 615.975464 185.668930 610.882629 175.262665 595.354004 166.438416 C 587.196350 161.830643 578.706665 157.138916 569.090149 154.887085 C 557.631653 152.202606 544.614075 151.697601 530.948914 152.406738 C 526.095215 152.658722 521.746155 153.107361 517.420593 154.034454 C 511.105957 155.388916 504.666687 156.244751 498.763763 157.859741 C 487.717957 160.881226 476.840759 163.095825 467.433685 168.410568 C 449.555298 178.618027 439.046875 188.872269 439.046875 203.225006 C 439.046875 217.470352 449.635986 225.178284 467.514374 235.385773 C 480.691254 242.827942 494.036682 245.193481 511.404266 247.106094 C 517.430786 247.851364 523.994751 248.408478 530.635315 248.408478 C 555.973572 248.408478 572.388977 245.857956 590.267334 235.757889 C 608.145752 225.551498 618.505981 217.219467 618.505981 202.973022 Z M 618.505981 202.973022" dclass="DKDrawableShape" fill-opacity="0.000000" fill="#000000"></path>
        <path ID="eSK0_C89E3F3A-4095-4200-AE78-F22D25591ED6" d=" M 558.474426 157.507843 C 566.238831 158.252060 576.863647 161.654175 590.349060 167.607910 C 603.834534 173.667969 611.292358 183.768021 612.824707 197.801819 C 614.255066 211.835602 608.431763 222.041962 595.457153 228.314682 C 582.380432 234.587357 571.755554 238.627396 563.684753 240.541077 C 555.511719 242.242142 544.273926 243.305328 530.175537 243.624252 C 515.975037 243.836914 502.898224 242.135834 490.843109 238.414734 C 478.890106 234.587357 470.512817 231.610489 465.711182 229.484161 C 461.011719 227.357849 458.355499 226.294662 458.049011 226.294662 C 456.618774 226.294662 455.903595 226.932587 455.903595 228.208344 C 455.903595 228.421005 455.903595 228.739944 456.107971 228.952576 C 456.107971 229.058899 456.210114 229.165237 456.210114 229.271530 C 457.231750 230.759949 460.296600 232.567337 465.506866 234.587357 C 468.878204 235.969452 472.760406 237.351578 477.153381 238.839996 C 491.047424 245.219009 511.582062 248.408493 538.757141 248.408493 C 541.209045 248.408493 546.010681 247.770584 553.366333 246.388474 C 563.173950 244.582169 572.266357 242.348465 580.542480 239.477921 C 605.878723 230.866257 618.546875 219.277771 618.546875 204.925034 C 618.546875 188.339630 610.781494 175.050064 595.252869 165.162643 C 580.643677 156.019409 562.152344 151.341492 539.778809 151.341492 C 536.611755 151.341492 530.584229 152.085709 521.593933 153.361496 C 509.130157 155.275208 497.687988 157.826797 487.267456 161.016296 C 455.086365 170.691101 439.046875 184.299622 439.046875 201.735550 C 439.046875 201.841858 439.557709 205.456619 440.579315 212.686142 C 442.009583 218.852509 444.257172 222.467255 447.219879 223.317780 C 447.628510 223.317780 448.139313 223.424103 448.547943 223.424103 C 449.876038 223.424103 450.489044 222.786209 450.489044 221.404099 C 449.263062 219.277771 447.934967 216.938797 446.709045 214.280884 C 444.154968 209.177689 442.826874 205.031357 442.826874 201.629227 C 442.826874 198.971313 444.257141 195.037613 447.117676 190.040741 C 449.978210 184.937546 458.764160 178.771164 473.679871 171.435333 C 488.493378 164.205811 504.328522 159.846832 521.287476 158.464722 C 538.246338 156.976257 550.607971 156.658356 558.474426 157.507843 Z M 558.474426 157.507843" dclass="DKDrawableShape" fill-opacity="1.000000" fill="#000000"></path>
        <path ID="eSK0_AE24C475-99B6-4A9A-A989-FC6F2FEDE28D" d=" M 456.107941 228.953598 C 456.107941 229.059937 456.210114 229.166245 456.210114 229.272537" dclass="DKDrawableShape" stroke-linecap="round" stroke="#FFFFFF" stroke-linejoin="round" stroke-opacity="1.000000" fill-opacity="0.000000" fill="#000000" stroke-width="1.000000"></path>
        <path ID="eSK0_E0D6C6E5-32C5-4D7D-BF49-2000CD26671D" d=" M 456.210144 229.271530 C 457.231750 230.759949 460.296631 232.567337 465.506897 234.587357 C 468.878235 235.969452 472.760406 237.351578 477.153381 238.839996 C 491.047424 245.219009 511.582031 248.408493 538.757202 248.408493 C 541.209045 248.408493 546.010681 247.770584 553.366333 246.388474 C 563.173950 244.582169 572.266357 242.348465 580.542542 239.477921 C 605.878723 230.866257 618.546875 219.277771 618.546875 204.925034 C 618.546875 188.339630 610.781494 175.050064 595.252869 165.162643 C 580.643677 156.019409 562.152344 151.341492 539.778809 151.341492 C 536.611755 151.341492 530.584167 152.085709 521.593933 153.361496 C 509.130157 155.275208 497.688019 157.826797 487.267456 161.016296 C 455.086365 170.691101 439.046906 184.299622 439.046906 201.735550 C 439.046906 201.841858 439.557678 205.456619 440.579315 212.686142 C 442.009583 218.852509 447.219849 224.380951 456.108002 228.952576" dclass="DKDrawableShape" stroke-linecap="round" stroke="#FFFFFF" stroke-linejoin="round" stroke-opacity="1.000000" fill-opacity="0.000000" fill="#000000" stroke-width="1.000000"></path>
        <Hotspots>
            <StickySpot id_sticky_spot="334337B0-8E23-4009-ABFE-86F529ACA8B3_32771" relative_location="{0.000000,-0.500000}" position_kind="0"></StickySpot>
            <StickySpot id_sticky_spot="334337B0-8E23-4009-ABFE-86F529ACA8B3_32768" relative_location="{-0.500000,0.000000}" position_kind="0"></StickySpot>
            <StickySpot id_sticky_spot="334337B0-8E23-4009-ABFE-86F529ACA8B3_32769" relative_location="{0.500000,0.000000}" position_kind="0"></StickySpot>
            <StickySpot id_sticky_spot="334337B0-8E23-4009-ABFE-86F529ACA8B3_32770" relative_location="{0.000000,0.500000}" position_kind="0"></StickySpot>
        </Hotspots>
        <g>
            <text style="font-family:Helvetica; font-size:14.000000; fill: #000000;" text-anchor="middle" transform="matrix(1.000000,0.000000,-0.000000,1.000000,528.776428,196.012604)">Partner Integration </text>
            <text style="font-family:Helvetica; font-size:14.000000; fill: #000000;" text-anchor="middle" transform="matrix(1.000000,0.000000,-0.000000,1.000000,528.776428,213.012604)">Account</text>
        </g>
    </g>
    <defs></defs>
    <g dclass="DiaDecoratedSeparator">
        <g enabled="1" ID="6A145D88-BCA9-4580-841D-E16112485201" dclass="DiaConnectorStyle">
            <path d=" M 334.554688 149.943665 L 233.125000 207.800781" dclass="DiaConnectorStylizedPath" fill="none" stroke="#000001" stroke-linejoin="round" stroke-opacity="1.000000" stroke-linecap="round" stroke-width="3.000000"></path>
            <g dclass="DiaConnectorArrow">
                <path d=" M 258.351013 206.613968 C 258.118011 206.171219 255.076385 205.147842 248.278488 204.534439 C 246.909317 204.362228 241.125671 204.513763 241.125671 204.513763 C 240.096207 204.525391 239.521011 204.727966 238.691971 204.408829 C 237.938690 203.812790 240.639145 200.498337 241.894592 198.055313 C 245.011475 192.017761 245.699905 189.492950 245.725693 188.074905 C 245.747299 186.875626 244.574219 186.825241 243.358185 187.518890 C 242.790314 188.581909 242.514282 189.298859 242.069122 190.304596 C 240.959366 192.815277 239.830627 195.167572 238.896988 197.042480 C 236.939896 200.975937 235.129272 203.430542 234.361008 205.110992 C 233.194992 205.892380 232.780853 206.556854 232.985077 207.431595 C 233.125641 208.035233 233.270355 207.897415 234.087753 207.881348 C 235.408615 207.817505 240.068527 207.649551 245.190002 207.951691 C 253.313889 208.268021 257.327332 208.440094 257.934509 208.093765 C 258.978058 207.497345 258.799713 207.463196 258.351013 206.613968 Z M 258.351013 206.613968" dclass="DKDrawableShape" fill-opacity="1.000000" fill="#000000"></path>
            </g>
        </g>
        <ConnectorEndPoint location="{334.55469, 149.94366}" id_target_sticky_spot="121B972F-E165-445D-AFE8-BDEE34ED3B20_32770" is_start="1"></ConnectorEndPoint>
        <ConnectorEndPoint location="{233.125, 207.80078}" id_target_sticky_spot="049E860D-6D83-46D6-A844-254E0639BDDE_32769" is_start="0"></ConnectorEndPoint>
        <text style="font-family:Helvetica; font-size:14.000000; fill: #000000;">
            <textPath xlink:href="#B2D487E2-EF83-4E40-964F-36306ACA4144" startOffset="0.000000%" baseline-shift="0.000000"></textPath>
        </text>
    </g>
    <g dclass="DiaDecoratedSeparator">
        <g enabled="1" ID="5CD69717-D0D5-40C5-8926-D4D957F8DCB0" dclass="DiaConnectorStyle">
            <path d=" M 334.554688 149.943665 L 435.550781 270.337585" dclass="DiaConnectorStylizedPath" fill="none" stroke="#000001" stroke-linejoin="round" stroke-opacity="1.000000" stroke-linecap="round" stroke-width="3.000000"></path>
            <g dclass="DiaConnectorArrow">
                <path d=" M 429.876251 245.729462 C 429.482269 246.037796 429.018768 249.213318 429.629700 256.011444 C 429.704865 257.389343 430.887268 263.052887 430.887268 263.052887 C 431.082611 264.063690 431.384705 264.593445 431.218811 265.466156 C 430.766937 266.313812 427.023346 264.248962 424.395355 263.450165 C 417.898071 261.462067 415.290894 261.235779 413.891052 261.463776 C 412.707214 261.656769 412.867218 262.819977 413.766968 263.892517 C 414.914337 264.261353 415.669067 264.404846 416.738159 264.663147 C 419.406708 265.306519 421.922821 265.996857 423.934357 266.580505 C 428.154175 267.803375 430.892761 269.146332 432.683441 269.602020 C 433.660553 270.609680 434.388336 270.898438 435.212524 270.541199 C 435.781342 270.295074 435.619873 270.177307 435.458038 269.375946 C 435.159241 268.087708 434.161469 263.532806 433.543762 258.439728 C 432.403625 250.390030 431.855896 246.410400 431.406677 245.874878 C 430.633392 244.954666 430.631653 245.136246 429.876251 245.729462 Z M 429.876251 245.729462" dclass="DKDrawableShape" fill-opacity="1.000000" fill="#000000"></path>
            </g>
        </g>
        <ConnectorEndPoint location="{334.55469, 149.94366}" id_target_sticky_spot="121B972F-E165-445D-AFE8-BDEE34ED3B20_32770" is_start="1"></ConnectorEndPoint>
        <ConnectorEndPoint location="{435.55078, 270.33759}" id_target_sticky_spot="F11F5B5E-1BED-456B-8E84-AF9F5981A7FF_32771" is_start="0"></ConnectorEndPoint>
        <text style="font-family:Helvetica; font-size:14.000000; fill: #000000;">
            <textPath xlink:href="#B2D487E2-EF83-4E40-964F-36306ACA4144" startOffset="0.000000%" baseline-shift="0.000000"></textPath>
        </text>
    </g>
    <g dclass="DiaDecoratedSeparator">
        <g enabled="1" ID="A64C1593-5D5B-4C38-9E1D-D21BAC8F74EA" dclass="DiaConnectorStyle">
            <path d=" M 334.554688 149.943665 L 237.003906 273.696960" dclass="DiaConnectorStylizedPath" fill="none" stroke="#000001" stroke-linejoin="round" stroke-opacity="1.000000" stroke-linecap="round" stroke-width="3.000000"></path>
            <g dclass="DiaConnectorArrow">
                <path d=" M 259.938995 263.126190 C 259.556824 262.803314 256.353516 262.996735 249.822586 264.980377 C 248.488907 265.334808 243.185257 267.646637 243.185257 267.646637 C 242.235458 268.043915 241.778381 268.447632 240.890182 268.463074 C 239.968231 268.193451 241.226776 264.107605 241.473175 261.371948 C 242.095352 254.605865 241.785522 252.007294 241.277023 250.683304 C 240.846802 249.563629 239.740616 249.957367 238.873962 251.056808 C 238.746719 252.255249 238.760056 253.023392 238.725052 254.122696 C 238.639069 256.866364 238.476028 259.470367 238.314606 261.558624 C 237.977432 265.939087 237.220825 268.893921 237.139648 270.739899 C 236.352295 271.901855 236.217926 272.673218 236.735626 273.407288 C 237.092529 273.914001 237.174911 273.731934 237.926483 273.410187 C 239.126755 272.855103 243.382721 270.949921 248.242996 269.307190 C 255.891357 266.550385 259.675842 265.203064 260.108551 264.654114 C 260.851837 263.709534 260.673737 263.744843 259.938995 263.126190 Z M 259.938995 263.126190" dclass="DKDrawableShape" fill-opacity="1.000000" fill="#000000"></path>
            </g>
        </g>
        <ConnectorEndPoint location="{334.55469, 149.94366}" id_target_sticky_spot="121B972F-E165-445D-AFE8-BDEE34ED3B20_32770" is_start="1"></ConnectorEndPoint>
        <ConnectorEndPoint location="{237.00391, 273.69696}" id_target_sticky_spot="D9F26AD6-D51B-49FC-AE8B-A977F3D5FEA0_32771" is_start="0"></ConnectorEndPoint>
        <text style="font-family:Helvetica; font-size:14.000000; fill: #000000;">
            <textPath xlink:href="#B2D487E2-EF83-4E40-964F-36306ACA4144" startOffset="0.000000%" baseline-shift="0.000000"></textPath>
        </text>
    </g>
    <g dclass="DiaDecoratedSeparator">
        <g enabled="1" ID="5C9014ED-AD62-48B5-B46A-99BE7EA4D835" dclass="DiaConnectorStyle">
            <path d=" M 334.554688 149.943665 L 439.046875 199.875000" dclass="DiaConnectorStylizedPath" fill="none" stroke="#000001" stroke-linejoin="round" stroke-opacity="1.000000" stroke-linecap="round" stroke-width="3.000000"></path>
            <g dclass="DiaConnectorArrow">
                <path d=" M 423.690125 179.826797 C 423.459198 180.270630 424.352539 183.352966 427.724121 189.287598 C 428.363251 190.510651 431.785065 195.175888 431.785065 195.175888 C 432.381531 196.015045 432.875916 196.372116 433.086334 197.235168 C 433.026123 198.193848 428.763519 197.864868 426.040649 198.226242 C 419.303436 199.107590 416.836670 199.981430 415.656952 200.768692 C 414.659332 201.434677 415.286743 202.427155 416.549896 203.030746 C 417.746979 202.891266 418.493347 202.709290 419.573425 202.501633 C 422.268829 201.981995 424.844910 201.568253 426.917542 201.266388 C 431.264893 200.631744 434.313782 200.719894 436.132385 200.393021 C 437.439087 200.905502 438.221130 200.866913 438.823334 200.200424 C 439.239136 199.740799 439.043396 199.700485 438.564178 199.038101 C 437.758698 197.989319 434.964020 194.256653 432.292419 189.876755 C 427.920776 183.022125 425.774017 179.626694 425.143341 179.325333 C 424.058380 178.807999 424.132019 178.973999 423.690125 179.826797 Z M 423.690125 179.826797" dclass="DKDrawableShape" fill-opacity="1.000000" fill="#000000"></path>
            </g>
        </g>
        <ConnectorEndPoint location="{334.55469, 149.94366}" id_target_sticky_spot="121B972F-E165-445D-AFE8-BDEE34ED3B20_32770" is_start="1"></ConnectorEndPoint>
        <ConnectorEndPoint location="{439.04688, 199.875}" id_target_sticky_spot="334337B0-8E23-4009-ABFE-86F529ACA8B3_32768" is_start="0"></ConnectorEndPoint>
        <text style="font-family:Helvetica; font-size:14.000000; fill: #000000;">
            <textPath xlink:href="#B2D487E2-EF83-4E40-964F-36306ACA4144" startOffset="0.000000%" baseline-shift="0.000000"></textPath>
        </text>
    </g>
</svg>